<svg width="204" height="204" viewBox="0 0 204 204" fill="none" xmlns="http://www.w3.org/2000/svg">
    <path d="M102 7C159.681 6.99993 197 49.282 197 102C197 154.417 154.548 196.918 102.15 196.999C86.5134 196.261 76.5825 193.761 70.1973 190.64C64.0165 187.618 61.0037 183.95 59.207 180.202C57.238 176.095 56.5675 171.668 55.6152 166.211C54.7596 161.307 53.5894 154.808 49.4766 149.641C45.6453 144.827 40.3024 141.719 35.5703 139.248C30.4361 136.567 25.9731 134.592 21.5566 131.717C17.3733 128.994 13.8669 125.816 11.3447 121.432C8.82815 117.057 7 110.974 7 102C7 75.4625 16.2261 51.7484 32.5186 34.7129C48.7655 17.7251 72.3961 7.00004 102 7Z" fill="#101015" stroke="url(#paint0_linear_201_247)" stroke-width="14"/>
    <mask id="mask0_201_247" style="mask-type:alpha" maskUnits="userSpaceOnUse" x="0" y="0" width="204" height="204">
        <path d="M204 102C204 158.333 158.333 204 102 204C37.0215 200.996 54.8657 167.28 43.5 153C32.1343 138.72 0 141.836 0 102C0 45.667 39.2259 8.04144e-05 102 1.02906e-10C163.793 -7.91572e-05 204 45.667 204 102Z" fill="#101015"/>
    </mask>
    <g mask="url(#mask0_201_247)">
        <ellipse cx="148.482" cy="68.0995" rx="65" ry="37.6248" transform="rotate(-130 148.482 68.0995)" fill="url(#paint1_radial_201_247)"/>
        <ellipse cx="65.6484" cy="132.237" rx="65" ry="39.021" transform="rotate(50 65.6484 132.237)" fill="url(#paint2_radial_201_247)"/>
    </g>
    <defs>
        <linearGradient id="paint0_linear_201_247" x1="29.1428" y1="175.44" x2="166.406" y2="23.6057" gradientUnits="userSpaceOnUse">
            <stop stop-color="#40C5DB"/>
            <stop offset="1" stop-color="white"/>
        </linearGradient>
        <radialGradient id="paint1_radial_201_247" cx="0" cy="0" r="1" gradientUnits="userSpaceOnUse" gradientTransform="translate(148.482 80.908) rotate(-90) scale(38.025 65.6915)">
            <stop stop-color="white" stop-opacity="0.6"/>
            <stop offset="1" stop-color="white" stop-opacity="0"/>
        </radialGradient>
        <radialGradient id="paint2_radial_201_247" cx="0" cy="0" r="1" gradientUnits="userSpaceOnUse" gradientTransform="translate(65.6484 145.521) rotate(-90) scale(39.4361 65.6915)">
            <stop stop-color="#40C5DB"/>
            <stop offset="1" stop-color="#226975" stop-opacity="0"/>
        </radialGradient>
    </defs>
</svg>
